# xmcd
#
# Track frame offsets: 
#        150
#        16090
#        33910
#        46995
#        64682
#        85187
#        99705
#        113915
#        131242
#        143865
#
# Disc length: 2093 seconds
#
# Revision: 3
# Processed by: cddbd v1.5.2PL0 Copyright (c) Steve Scherf et al.
# Submitted via: ExactAudioCopy v0.99pb4
#
DISCID=82082b0a
DTITLE=Suzy Bogguss - Greatest Hits
DYEAR=1994
DGENRE=Country
TTITLE0=Somewhere Between
TTITLE1=Someday Soon
TTITLE2=Outbound Plane
TTITLE3=Cross My Broken Heart
TTITLE4=Letting Go
TTITLE5=Heartache
TTITLE6=Drive South
TTITLE7=Aces
TTITLE8=Hopelessly Yours
TTITLE9=I Want To Be A Cowboy's Sweetheart
EXTD=ID3G:   2
EXTT0=
EXTT1=
EXTT2=
EXTT3=
EXTT4=
EXTT5=
EXTT6=
EXTT7=
EXTT8=(with Lee Greenwood)
EXTT9=
PLAYORDER=
